<svg height="32" viewBox="0 0 32 32" width="32" xmlns="http://www.w3.org/2000/svg"><path d="m13.451 15.025q.475.56 1.337.906c.314.163.685.259 1.078.259.416-.003.817-.066 1.195-.18l-.03.008c.262-.07.492-.173.7-.308l-.009.006c.228-.142.426-.299.604-.475.306-.295.565-.637.766-1.013l.011-.022c.164-.336.259-.731.259-1.148 0-.021 0-.042-.001-.063v.003-6.082c0-.005 0-.012 0-.019 0-.254-.031-.5-.091-.736l.004.021c-.218-.676-.607-1.246-1.116-1.678l-.005-.004q-.776-.647-1.898-.733c-.123-.028-.265-.043-.41-.043s-.287.016-.423.046l.013-.002c-.319.074-.592.163-.855.272l.036-.013c-.604.264-1.102.678-1.459 1.196l-.007.011c-.325.492-.518 1.095-.518 1.744 0 .024 0 .048.001.072v-.004 5.694.017c0 .162.016.32.046.473l-.003-.015c.025.116.041.25.043.387v.002c.154.547.406 1.023.739 1.431l-.006-.007z"/><path d="m31.957 7.131c.028-.194.043-.419.043-.647s-.016-.453-.046-.672l.003.025c-.058-.23-.115-.489-.173-.776-.057-.293-.147-.553-.267-.795l.008.018c-.229-.463-.473-.858-.748-1.229l.015.021c-.282-.367-.61-.68-.978-.94l-.014-.009c-.273-.22-.586-.409-.923-.551l-.026-.01c-.325-.138-.703-.244-1.097-.299l-.024-.003c-.273-.055-.588-.086-.909-.086-.014 0-.028 0-.042 0h.002c-.366 0-.724.031-1.073.092l.037-.005c-.494.124-.925.286-1.33.491l.036-.017c-.44.219-.807.434-1.159.67l.037-.023q-.518.345-1.035.647c-.307.182-.675.37-1.056.535l-.066.026-.086.043v9.102.02c0 .344-.031.68-.091 1.006l.005-.034c-.063.344-.153.648-.27.938l.011-.032c-.284.631-.645 1.172-1.082 1.643l.004-.004c-.444.465-.973.843-1.565 1.109l-.031.013c-.201.103-.443.205-.694.29l-.04.012c-.241.082-.518.129-.806.129-.005 0-.009 0-.014 0h.001c-.111.037-.238.058-.37.058-.067 0-.133-.005-.197-.016l.007.001c-.189-.027-.408-.043-.63-.043-.006 0-.012 0-.018 0h.001c-.372-.061-.692-.136-1.004-.23l.055.014c-.329-.102-.615-.234-.879-.398l.016.009c-.525-.294-.969-.669-1.331-1.113l-.007-.008c-.363-.446-.668-.959-.892-1.513l-.014-.04c-.058-.173-.115-.33-.173-.475-.055-.136-.086-.294-.086-.459 0-.005 0-.011 0-.016v.001q-.086-.647-.086-.647v-9.318c0-.028-.028-.043-.086-.043q-.431-.259-.776-.431c-.264-.135-.49-.278-.701-.439l.011.008q-.518-.259-.992-.518t-.906-.518c-.399-.208-.861-.372-1.347-.469l-.033-.006c-.264-.05-.567-.078-.877-.078-.208 0-.412.013-.614.038l.024-.002c-.483.059-.92.165-1.337.315l.042-.013c-.431.158-.803.377-1.127.652l.005-.004c-.348.233-.646.504-.9.813l-.006.007c-.24.289-.455.615-.633.962l-.014.03c-.148.284-.293.626-.415.98l-.017.055c-.11.326-.173.701-.173 1.092v.031-.002c-.022.141-.035.303-.035.468 0 .247.028.487.082.718l-.004-.021q.129.561.302 1.078c.195.445.426.828.699 1.177l-.009-.012c.297.381.638.709 1.021.982l.015.01 2.071 1.38c.225.226.465.437.716.634l.017.013c.269.21.508.421.733.647l.863.863c.283.283.538.594.762.927l.014.022q.345.431.604.82t.518.82c.27.374.515.799.715 1.249l.018.046q.302.69.561 1.38.345.949.604 1.855c.16.536.282 1.166.342 1.815l.003.04c.054.154.086.332.086.517 0 .185.032.363.09.529l-.003-.011c0 .244.016.483.046.718l-.003-.028c.027.207.043.447.043.69l.173 1.035c.068.399.158.747.273 1.084l-.014-.048c.129.443.306.83.529 1.184l-.011-.019c.239.384.525.711.856.987l.007.005c.671.604 1.531 1.011 2.481 1.12l.021.002c.232.052.5.083.774.086h.003c.245 0 .483-.032.71-.091l-.02.004h.029c.331 0 .647-.063.937-.179l-.017.006q.431-.173.949-.431c.601-.373 1.093-.866 1.456-1.448l.011-.019c.276-.329.496-.717.64-1.14l.007-.025c.133-.384.239-.836.298-1.303l.004-.035c.001-.199.017-.393.046-.583l-.003.022c.026-.168.042-.362.043-.559v-.001q.086-.518.129-1.035c.028-.359.074-.684.138-1.002l-.009.053q.086-.518.173-1.078c.064-.411.154-.775.273-1.125l-.014.047q.431-1.38.431-1.38l.518-1.38q.345-.69.69-1.337c.261-.485.518-.894.8-1.285l-.023.034q.518-.604.992-1.165t.992-1.165q.345-.259.647-.518t.561-.518l.69-.518c.2-.154.427-.297.665-.42l.025-.012.863-.604.863-.69c.232-.234.445-.487.635-.758l.012-.018c.193-.273.354-.587.467-.923l.008-.026v.086c.157-.35.277-.756.342-1.181l.003-.027z"/></svg>