<svg height="32" viewBox="0 0 32 32" width="32" xmlns="http://www.w3.org/2000/svg"><path d="m15.814 22.934v8.275l-1.601.788-5.508-8.295 4.355-4.355z"/><path d="m9.102 16.234h-8.314l-.788 1.537 8.301 5.56 4.323-4.343-3.523-2.754z"/><path d="m15.814 9.098v-8.307l-1.601-.788-5.508 8.327 4.355 4.355z"/><path d="m9.14 15.773h-8.327l-.794-1.537 8.288-5.56 4.355 4.343-3.523 2.754z"/><path d="m16.211 22.934v8.275l1.569.788 5.534-8.295-4.349-4.355z"/><path d="m22.898 16.183h8.314l.788 1.601-8.301 5.528-4.323-4.375 3.523-2.754z"/><path d="m16.211 9.098v-8.307l1.569-.788 5.534 8.327-4.349 4.355z"/><path d="m22.86 15.824h8.327l.794-1.601-8.288-5.528-4.355 4.375 3.523 2.754z"/><path d="m16.013 19.705c-1.924 0-3.484-1.56-3.484-3.484s1.56-3.484 3.484-3.484 3.484 1.56 3.484 3.484c-.004 1.923-1.561 3.481-3.484 3.484zm0-6.328c-1.571 0-2.844 1.273-2.844 2.844s1.273 2.844 2.844 2.844 2.844-1.273 2.844-2.844c0-1.571-1.273-2.844-2.844-2.844z"/><path d="m15.673 15.036v.628l-.506.5h-.647v-.25l1.153-.877z"/><path d="m15.673 17.291v-.628l-.506-.5h-.647v.25z"/><path d="m16.301 15.036v.628l.506.5h.647v-.25l-1.153-.877z"/><path d="m16.301 17.291v-.628l.506-.5h.647v.25z"/><path d="m16.301 16.227c0 .173-.14.314-.314.314s-.314-.14-.314-.314c0-.173.14-.314.314-.314s.314.14.314.314z"/></svg>